<svg xmlns="http://www.w3.org/2000/svg" viewBox="0 0 160.91 427.48"><defs><style>.cls-1{fill:#e74648;}.cls-2{fill:#f0f0f0;}.cls-3{fill:none;}</style></defs><title>1Fichier 9</title><g id="Calque_2" data-name="Calque 2"><g id="Calque_1-2" data-name="Calque 1"><path class="cls-1" d="M86.87,332.8l-3.78-3.26A191.63,191.63,0,0,1,0,385.8v5.26A196.49,196.49,0,0,0,86.87,332.8Z"/><path class="cls-2" d="M0,422.21v5.27a229.31,229.31,0,0,0,101.55-59.3,229.88,229.88,0,0,0,53.71-84.05l-4.79-1.75A226.73,226.73,0,0,1,0,422.21Z"/><path class="cls-2" d="M89.74,53.72A213,213,0,0,0,0,0V8.45A206.87,206.87,0,0,1,137.23,151l7.68-2.46A212.86,212.86,0,0,0,89.74,53.72Z"/><path class="cls-3" d="M143.22,182.83c-.1-.9-.2-1.81-.31-2.71C143,181,143.12,181.93,143.22,182.83Z"/><path class="cls-3" d="M141.6,171c-.21-1.24-.43-2.47-.66-3.7C141.17,168.51,141.39,169.74,141.6,171Z"/><path class="cls-3" d="M142.19,174.79c-.13-.89-.27-1.77-.41-2.66C141.92,173,142.06,173.9,142.19,174.79Z"/><path class="cls-3" d="M140.74,166.25c-.17-.91-.35-1.82-.53-2.72C140.39,164.43,140.57,165.34,140.74,166.25Z"/><path class="cls-3" d="M139.06,158.3l-.57-2.39Z"/><path class="cls-3" d="M139.91,162.11c-.17-.79-.34-1.57-.52-2.34C139.57,160.54,139.74,161.32,139.91,162.11Z"/><path class="cls-3" d="M144.2,195.7c0-.88-.09-1.76-.14-2.63C144.11,193.94,144.16,194.82,144.2,195.7Z"/><path class="cls-3" d="M144.34,199.84c0-.91-.05-1.82-.08-2.72C144.29,198,144.32,198.93,144.34,199.84Z"/><path class="cls-3" d="M144.42,205c0-1.32,0-2.64,0-3.95C144.4,202.4,144.42,203.72,144.42,205Z"/><path class="cls-3" d="M143.7,187.82q-.16-1.92-.36-3.84Q143.54,185.9,143.7,187.82Z"/><path class="cls-3" d="M138.16,154.58c-.3-1.19-.61-2.38-.93-3.56C137.55,152.2,137.86,153.39,138.16,154.58Z"/><path class="cls-3" d="M144,191.73c-.07-1-.15-2.09-.23-3.13C143.84,189.64,143.92,190.68,144,191.73Z"/><path class="cls-3" d="M142.73,178.69l-.33-2.47Z"/><path class="cls-1" d="M128.16,285.16l7.11,4c.36-.85.71-1.71,1.07-2.57l-7.11-4C128.88,283.47,128.52,284.31,128.16,285.16Z"/><path class="cls-1" d="M120.75,300.78l7.06,4c.34-.65.7-1.29,1-1.95l-7.08-4C121.44,299.51,121.09,300.14,120.75,300.78Z"/><path class="cls-1" d="M122.66,297.07l7.07,4c.38-.74.74-1.49,1.11-2.24l-7.09-4C123.39,295.59,123,296.33,122.66,297.07Z"/><path class="cls-1" d="M138.16,154.58l.33,1.33.57,2.39.33,1.47c.18.77.35,1.55.52,2.34l.3,1.42c.18.9.36,1.81.53,2.72.07.34.14.68.2,1,.23,1.23.45,2.46.66,3.7l.18,1.15c.14.89.28,1.77.41,2.66l.21,1.43.33,2.47.18,1.43c.11.9.21,1.81.31,2.71l.12,1.15q.19,1.92.36,3.84l.06.78c.08,1,.16,2.08.23,3.13,0,.44,0,.89.07,1.34.05.87.1,1.75.14,2.63l.06,1.42c0,.9.06,1.81.08,2.72,0,.41,0,.83,0,1.25,0,1.31,0,2.63,0,3.95A204.83,204.83,0,0,1,130,280.74l7.11,4.05A213.7,213.7,0,0,0,152.42,205a214.76,214.76,0,0,0-7.51-56.48L137.23,151h0C137.55,152.2,137.86,153.39,138.16,154.58Z"/><path class="cls-1" d="M124.64,293.06l7.07,4,.9-1.93-7.1-4C125.22,291.78,124.94,292.42,124.64,293.06Z"/><path class="cls-1" d="M126.35,289.32l7.08,4c.35-.78.71-1.55,1-2.33l-7.1-4C127.05,287.79,126.69,288.55,126.35,289.32Z"/><path class="cls-1" d="M118.84,304.36l7.12,3.92c.32-.58.61-1.16.93-1.74l-7.08-4C119.48,303.15,119.17,303.76,118.84,304.36Z"/><path class="cls-1" d="M143.34,184l-.12-1.15Z"/><path class="cls-1" d="M142.91,180.12l-.18-1.43Z"/><path class="cls-1" d="M144.26,197.12l-.06-1.42Z"/><path class="cls-1" d="M143.76,188.6l-.06-.78Z"/><path class="cls-1" d="M142.4,176.22l-.21-1.43Z"/><path class="cls-1" d="M144.06,193.07c0-.45-.05-.9-.07-1.34C144,192.17,144,192.62,144.06,193.07Z"/><path class="cls-1" d="M144.37,201.09c0-.42,0-.84,0-1.25C144.35,200.25,144.37,200.67,144.37,201.09Z"/><path class="cls-1" d="M138.49,155.91l-.33-1.33Z"/><path class="cls-1" d="M140.94,167.28c-.06-.35-.13-.69-.2-1C140.81,166.59,140.88,166.93,140.94,167.28Z"/><path class="cls-1" d="M139.39,159.77l-.33-1.47Z"/><path class="cls-1" d="M140.21,163.53l-.3-1.42Z"/><polygon class="cls-1" points="137.23 151.02 137.23 151.01 137.23 151.01 137.23 151.02"/><path class="cls-1" d="M141.78,172.13,141.6,171Z"/><path class="cls-2" d="M152.74,315.56,150,314.12c-.07.15-.15.29-.22.43l2.79,1.44Z"/><path class="cls-2" d="M146,321.35l2.8,1.44c.19-.33.37-.67.56-1l-2.78-1.48C146.43,320.65,146.24,321,146,321.35Z"/><path class="cls-2" d="M43.05,418.82l1.38,2.82a241.54,241.54,0,0,0,64.43-46.15,242.5,242.5,0,0,0,38.42-50L144.51,324A239.75,239.75,0,0,1,43.05,418.82Z"/><path class="cls-2" d="M147.08,319.48l2.8,1.44.45-.82-2.78-1.47Z"/><path class="cls-2" d="M149.28,315.39l-.39.74,2.79,1.44.38-.71Z"/><path class="cls-2" d="M145,323.22l2.8,1.44.58-1-2.78-1.47Z"/><path class="cls-2" d="M148,317.8l2.8,1.44.42-.79L148.44,317C148.3,317.25,148.15,317.52,148,317.8Z"/><path class="cls-1" d="M156.6,129.71l-5,1.34c.21.6.42,1.21.62,1.82l4.89-1.51C157,130.81,156.79,130.26,156.6,129.71Z"/><path class="cls-1" d="M154.8,124.71l-5,1.34c.31.83.62,1.66.92,2.49l4.9-1.51C155.37,126.25,155.09,125.48,154.8,124.71Z"/><path class="cls-1" d="M101.55,41.91a234,234,0,0,0-20-17.8l-3.18,4a226.79,226.79,0,0,1,70.49,95.43L153.8,122A230.12,230.12,0,0,0,101.55,41.91Z"/><path class="cls-1" d="M158,134.07l-4.94,1.33.6,1.86,4.88-1.51Z"/><path class="cls-1" d="M155.7,144l.3,1,4.91-1.35c-.09-.34-.19-.67-.29-1Z"/><path class="cls-1" d="M159.41,138.47l-4.93,1.33c.17.54.32,1.07.48,1.6l4.88-1.5C159.7,139.42,159.55,139,159.41,138.47Z"/><path class="cls-1" d="M48.8,49.32l3-4-1.4-1-3.08,3.94Z"/><path class="cls-1" d="M53.82,53l3-4-1.09-.83L52.6,52.09Z"/><path class="cls-1" d="M46,47.38l3-4c-.5-.35-1-.68-1.51-1l-3.08,3.95Z"/><path class="cls-1" d="M46.08,41.4A195.25,195.25,0,0,0,0,19v5.28A191.1,191.1,0,0,1,43.13,45.44Z"/><path class="cls-1" d="M51.39,51.2l3-4-1.23-.9L50,50.2Z"/><path class="cls-1" d="M56.12,54.78l3.08-3.93L58.08,50,55,53.93Z"/></g></g></svg>