<svg xmlns="http://www.w3.org/2000/svg" viewBox="0 0 512 512"><defs><style>.cls-1{fill:#fff;}</style></defs><title>1Fichier 4</title><g id="Calque_2" data-name="Calque 2"><g id="Calque_1-2" data-name="Calque 1"><path class="cls-1" d="M512,242v28c-1.1,8.87-1.88,17.8-3.34,26.61-8.1,49-28.37,92.34-61.54,129.3-41.3,46-92.65,73.91-153.92,83.16-7.71,1.16-15.47,2-23.2,2.93H242a31.4,31.4,0,0,0-4.36-.86c-19.18-1.19-38.1-4.28-56.25-10.46C84,467.52,24.43,400.69,4,299.59,2.05,290.18,1.29,280.53,0,271V241a32.55,32.55,0,0,0,.91-4.32c3-40.36,14.62-78.11,36-112.47C79,56.28,139.74,15.66,218.85,2.93,226.2,1.74,233.62,1,241,0h30c8.54,1.09,17.12,1.9,25.6,3.32,53.79,9,100.38,32.37,139.11,70.79q60.77,60.27,73.38,145.2C510.2,226.85,511,234.43,512,242ZM201,419c-3.61.6-6.54,1.19-9.5,1.55-3.14.39-6.3.65-9.45.82-26.84,1.5-49.78-10.38-58.81-35.27a58.52,58.52,0,0,0-24.31-30.22c-3.16-2-7.66-7.13-6.92-9,1.85-4.6,7.48-3.77,11.92-3.17,14.34,1.94,24.45,10.37,31.49,22.3,15,25.38,38.56,29,63,19.74,1.34-.51,3-1.94,3.27-3.2,2-10.47,6-20,13.43-28-10.79-2.29-21.27-4-31.46-6.77-26-7.06-47-21-59.23-45.93-7.82-16-10.52-33.2-11.36-50.8-1.14-24.24,4.76-46.18,20.72-65a6.08,6.08,0,0,0,.81-4.91c-4.52-15.34-3.88-30.59.38-45.82,3.25-11.62,4.24-12.17,16.31-9.73,16.3,3.28,30.47,11.26,44.46,19.77,2,1.21,5.06,2,7.22,1.44a205.47,205.47,0,0,1,106.19,0c2.18.57,5.11-.26,7.25-1.32,10.4-5.2,20.36-11.4,31.06-15.84,6.9-2.86,14.77-3.48,22.29-4.62,1.43-.21,4.16,1.51,4.68,2.93,6.24,16.78,8.12,34,3.24,51.43-1,3.48-.61,5.77,1.7,8.51A78.12,78.12,0,0,1,397,225a131.5,131.5,0,0,1-6.83,70.7c-7.14,18.79-19.61,33.41-37.64,42.3-10.2,5-21.25,8.52-32.18,11.83-7.49,2.27-15.43,3-23.76,4.6C308.34,366.61,311,381.26,311,396.79q0,28.74,0,57.49c0,12.68,6.82,17.48,18.81,13.27C435.1,430.62,497.61,321,475.73,211.67,450.5,85.57,324.14,6.44,199.73,38.83,93,66.62,21.83,168,33.29,277.84c7.59,72.74,43.14,129.26,104.93,168.45,14.06,8.91,30,15,45.39,21.6,8.47,3.63,17-1.26,17.25-9.35C201.3,445.58,201,432.59,201,419Z"/></g></g></svg>