<svg xmlns="http://www.w3.org/2000/svg" viewBox="0 0 512 512"><defs><style>.cls-1{fill:#fff;}.cls-2{fill:#fefefe;}.cls-3{fill:#d0c49a;}</style></defs><title>1Fichier 1</title><g id="Calque_2" data-name="Calque 2"><g id="Calque_1-2" data-name="Calque 1"><path class="cls-1" d="M512,236v41c-.83.75-.79,1.77-.87,2.77a209.36,209.36,0,0,1-3.65,25.66Q490.26,390.87,425,448.59a249.46,249.46,0,0,1-123.44,59.55c-8.47,1.5-17,2.58-25.52,3.86H235c-9-1.5-18-2.78-26.92-4.53Q123,490.9,65.07,426.41C32.6,390.21,12.24,347.94,3.78,300,2.43,292.31,2.43,284.45,0,277V237c1-.9.89-2.09,1-3.25a235.55,235.55,0,0,1,6.63-39.83Q27.8,115.1,89.37,61.86C125.19,31,166.41,11.73,213,3.62c8-1.39,16.17-1.45,24-3.62h37c1.06,1.07,2.45.88,3.76,1A206.2,206.2,0,0,1,304,4.52q85,16.61,143,81.08c32.49,36.18,52.81,78.47,61.29,126.44C509.63,220,509.71,228.18,512,236ZM151.14,188.36c-1.47,1.64-1.4,3.65-1.4,5.66q0,85.48-.06,171c0,4.55,1.26,5.88,5.91,5.86q85.23-.27,170.46-.17c1.17,0,2.34,0,3.5-.05,2.2-.17,2.59-1.33,1.34-3a32.6,32.6,0,0,0-3.09-3.25q-33.75-33.76-67.52-67.51c-3-3-6.11-5.95-9.17-8.92,4,.11,6.85-1.81,9.56-4.53q46.77-46.92,93.67-93.71c1.12-1.12,2-3.21,3.88-2.63,2.31.7,1.39,3,1.58,4.75a23.17,23.17,0,0,1,0,2.5q0,85.5-.09,171c0,4.51,1.15,6.08,5.86,5.92,10.83-.35,21.67-.1,32.5-.12,8.76,0,13-4.24,13.06-12.91,0-4.34,0-8.67,0-13q0-100.25,0-200.49c0-9.09-4.59-13.61-13.65-13.62-16.33,0-32.66,0-49,0-4.09,0-8.24-.48-11.46,2.87-.36-3.1-2.65-2.81-4.85-2.81q-78.65,0-157.3,0c-2,0-4-.08-5.23,2a12.7,12.7,0,0,0-7.8-2.13c-17.49.12-35,.05-52.47.07-7.19,0-12.18,4.8-12.18,11.92q-.06,108.45,0,216.89a11.33,11.33,0,0,0,11,11c11,.07,22,0,33,0,6.49,0,6.5,0,6.5-6.49q0-86,0-171.9a17.55,17.55,0,0,1,.17-4C148.33,186.43,148.86,186.43,151.14,188.36Z"/><path d="M337,134c3.22-3.35,7.37-2.88,11.46-2.87,16.33,0,32.66,0,49,0,9.06,0,13.65,4.53,13.65,13.62q0,100.25,0,200.49c0,4.33,0,8.66,0,13,0,8.67-4.3,12.9-13.06,12.91-10.83,0-21.67-.23-32.5.12-4.71.16-5.87-1.41-5.86-5.92q.19-85.49.09-171a23.17,23.17,0,0,0,0-2.5c-.19-1.71.73-4.05-1.58-4.75-1.9-.58-2.76,1.51-3.88,2.63q-46.87,46.82-93.67,93.71c-2.71,2.72-5.6,4.64-9.56,4.53a2,2,0,0,0-.68-.55,3.94,3.94,0,0,0-3.36-3.34l-93.64-93.69a1.61,1.61,0,0,0-1.61-1.82.52.52,0,0,0-.68-.2c-2.28-1.93-2.81-1.93-3.3.24a17.55,17.55,0,0,0-.17,4q0,85.95,0,171.9c0,6.51,0,6.5-6.5,6.49-11,0-22,0-33,0a11.33,11.33,0,0,1-11-11q0-108.45,0-216.89c0-7.12,5-11.91,12.18-11.92,17.49,0,35,.05,52.47-.07a12.75,12.75,0,0,1,7.81,2.13l81.7,81.63c1.41,3.14,2.94,3,4.57.17Z"/><path class="cls-2" d="M250.43,287.41a2,2,0,0,1,.68.55c3.06,3,6.15,5.91,9.17,8.92q33.78,33.74,67.52,67.51a32.6,32.6,0,0,1,3.09,3.25c1.25,1.65.86,2.81-1.34,3-1.16.09-2.33.05-3.5.05q-85.23,0-170.46.17c-4.65,0-5.92-1.31-5.91-5.86q.18-85.49.06-171c0-2-.07-4,1.4-5.66a.52.52,0,0,1,.68.2c-.52,1.54,0,2.19,1.61,1.82l93.64,93.69C247.05,286.32,247.74,287.88,250.43,287.41Z"/><path class="cls-2" d="M251.36,214.82l-81.7-81.63c1.17-2.12,3.18-2,5.22-2q78.65,0,157.3,0c2.2,0,4.49-.29,4.85,2.81l-81.1,81Z"/><path class="cls-3" d="M251.36,214.82l4.57.17C254.3,217.85,252.77,218,251.36,214.82Z"/><path class="cls-3" d="M250.43,287.41c-2.69.47-3.38-1.09-3.36-3.34A3.94,3.94,0,0,1,250.43,287.41Z"/><path class="cls-3" d="M153.43,190.38c-1.64.37-2.13-.28-1.61-1.82A1.61,1.61,0,0,1,153.43,190.38Z"/></g></g></svg>