<svg xmlns="http://www.w3.org/2000/svg" viewBox="0 0 408.7 408.7"><defs><style>.cls-1{fill:#fff;}</style></defs><title>1Fichier 3</title><g id="Calque_2" data-name="Calque 2"><g id="Calque_1-2" data-name="Calque 1"><path class="cls-1" d="M204.39,408.7A204.35,204.35,0,1,1,408.7,204.53,204.22,204.22,0,0,1,204.39,408.7Zm79.68-131.14a10.33,10.33,0,0,0,.4-1.86c-.23-20.75.36-41.56-.91-62.25-1.75-28.26-25.13-40.5-48.86-35.4a34.55,34.55,0,0,0-20.66,13c0-3.83-.16-6.69.05-9.52.22-3.07-1.09-4-4-3.94-9.17.12-18.34.16-27.5,0-3.48-.07-4.32,1.26-4.31,4.54q.15,45.76,0,91.53c0,3.72,1.31,4.63,4.72,4.57,8.88-.16,17.77-.2,26.64,0,3.67.09,4.54-1.28,4.51-4.74-.15-17.33-.13-34.67,0-52,.07-11.62,9.82-19.41,21.09-17.06,7.6,1.59,12.58,7.74,12.79,17.11.37,16.75.26,33.51.39,50.27,0,1.92.28,3.83.44,5.75Zm-124.39.15a24.36,24.36,0,0,0,.27-2.48c0-31.35,0-62.71.07-94.07,0-2.91-1.15-3.66-3.81-3.62-7.59.11-15.18.21-22.76,0-3.8-.12-5.17.85-5.15,5,.18,30.21.09,60.42.11,90.63,0,1.51.14,3,.22,4.62ZM143.32,130.78c-11.41.12-19.3,7.56-19.11,18,.18,10.17,8.21,17.22,19.52,17.12s18.87-7.31,18.77-17.75S154.52,130.66,143.32,130.78Z"/></g></g></svg>