<svg xmlns="http://www.w3.org/2000/svg" viewBox="0 0 73.08 75.84"><defs><style>.cls-1{fill:none;}.cls-2{fill:#f0f0f0;}</style></defs><title>1Fichier 1</title><g id="Calque_2" data-name="Calque 2"><g id="Calque_1-2" data-name="Calque 1"><g id="Calque_1-2-2" data-name="Calque 1-2"><path class="cls-1" d="M4.83,37.37A31.63,31.63,0,0,1,17.68,11.92l-1.19-1.61A33.59,33.59,0,0,0,8.28,55.69L10,54.6A31.51,31.51,0,0,1,4.83,37.37Z"/><path class="cls-1" d="M10,37.37a26.41,26.41,0,0,1,1.64-9.18l-2.82-1a29.48,29.48,0,0,0,2.95,26.28l2.51-1.64A26.42,26.42,0,0,1,10,37.37Z"/><path class="cls-1" d="M15.43,63.61l1.25-1.56A31.82,31.82,0,0,1,10,54.6L8.28,55.69A33.91,33.91,0,0,0,15.43,63.61Z"/><path class="cls-1" d="M59.77,37.87a23.24,23.24,0,0,1-8.7,17.64l1.26,1.56a25.28,25.28,0,0,0,9.44-19.15Z"/><path class="cls-1" d="M61.78,37.37a25.15,25.15,0,0,0-7.24-17.68l-1.42,1.39a23.25,23.25,0,0,1,6.66,16.29v.5l2,.05C61.77,37.74,61.78,37.56,61.78,37.37Z"/><path class="cls-1" d="M57.54,16.73l-2.14,2.1a26.48,26.48,0,1,1-41.12,33l-2.51,1.64a29.48,29.48,0,1,0,45.77-36.7Z"/><path class="cls-1" d="M36.5,7.87A29.54,29.54,0,0,0,8.82,27.15l2.82,1A26.55,26.55,0,0,1,36.5,10.87h.61l.06-3Z"/><path class="cls-1" d="M37.17,7.89l-.06,3A26.36,26.36,0,0,1,55.4,18.83l2.14-2.1A29.38,29.38,0,0,0,37.17,7.89Z"/><path class="cls-1" d="M36.54,75.84A38,38,0,0,0,72.87,48.79H.21A38,38,0,0,0,36.54,75.84Z"/><path class="cls-1" d="M36.54,0A37.93,37.93,0,0,0,0,27.79H73.08A37.93,37.93,0,0,0,36.54,0Z"/><path class="cls-2" d="M5.72,41.69H5.13l-.72-2.44H1.68L.94,41.67H.36l2.7-8.34Zm-3.93-2.9H4.3l-1.25-4Z"/><path class="cls-2" d="M9.53,33.87H7.79v-.45h2.27v8.27H9.51Z"/><path class="cls-2" d="M14.16,38.75c0-2.29,1.19-3.06,2.26-3.06s2.26.67,2.25,3.07-1.28,3.08-2.27,3.08S14.15,41.16,14.16,38.75Zm4,0c0-1.14-.29-2.62-1.73-2.62s-1.74,1.47-1.74,2.62.29,2.63,1.72,2.63,1.73-1.47,1.74-2.62Z"/><path class="cls-2" d="M23,36.28H21.27v-.44h2.24v5.89H23Zm-.89-2.44a.62.62,0,1,1-.63.62.62.62,0,0,1,.63-.62Zm2,0a.63.63,0,1,1-.62.64h0a.63.63,0,0,1,.63-.63h0Z"/><path class="cls-2" d="M31.23,36.79a2.71,2.71,0,0,0-1.58-.62,1.15,1.15,0,0,0-1.17,1.07c0,.69.76,1,1.3,1.22.9.34,1.84.7,1.84,1.85a1.64,1.64,0,0,1-1.71,1.56h-.06a3.77,3.77,0,0,1-2.22-.95l.29-.43a3,3,0,0,0,1.95.93,1.1,1.1,0,0,0,1.22-1,.49.49,0,0,0,0-.12c0-.88-.68-1.13-1.38-1.4S28,38.24,28,37.19a1.64,1.64,0,0,1,1.73-1.46,2.8,2.8,0,0,1,1.77.63Z"/><path class="cls-2" d="M41.45,33.75h1.81a2.11,2.11,0,0,1,2.22,2,2.68,2.68,0,0,1,0,.4,2.2,2.2,0,0,1-2,2.37,2.17,2.17,0,0,1-.44,0H42v3.26h-.52Zm.52.45v3.86h.94a1.75,1.75,0,0,0,2-1.47,2.06,2.06,0,0,0,0-.43c0-1.51-.8-2-1.61-2Z"/><path class="cls-2" d="M52.13,34.22h-3.4v3.24h2.44v.45H48.72v3.46H52.2v.45h-4v-8h3.92Z"/><path class="cls-2" d="M59.13,34.24H56.81v7.58h-.52V34.24H54v-.45h5.15Z"/><path class="cls-2" d="M64.61,34.25H63.5v7.13h1.1v.44H61.84v-.44H63V34.25H61.86V33.8h2.75Z"/><path class="cls-2" d="M72.51,34.27H70.19v7.57h-.52V34.27h-2.3v-.45h5.15Z"/></g></g></g></svg>