<svg xmlns="http://www.w3.org/2000/svg" viewBox="0 0 75.84 75.84"><defs><style>.cls-1{fill:none;}.cls-2{fill:#fff;}.cls-3{fill:#e64142;}</style></defs><title>1Fichier 1</title><g id="Calque_2" data-name="Calque 2"><g id="Calque_1-2" data-name="Calque 1"><g id="Calque_1-2-2" data-name="Calque 1-2"><path class="cls-1" d="M6.21,37.37A31.63,31.63,0,0,1,19.06,11.92l-1.19-1.61A33.61,33.61,0,0,0,9.65,55.69l1.68-1.09A31.38,31.38,0,0,1,6.21,37.37Z"/><path class="cls-1" d="M11.37,37.37A26.4,26.4,0,0,1,13,28.19l-2.82-1a29.39,29.39,0,0,0,3,26.28l2.51-1.64A26.33,26.33,0,0,1,11.37,37.37Z"/><path class="cls-1" d="M16.81,63.61l1.25-1.56a32.05,32.05,0,0,1-6.73-7.45L9.65,55.69A34.18,34.18,0,0,0,16.81,63.61Z"/><path class="cls-2" d="M61.15,37.87a23.24,23.24,0,0,1-8.7,17.64l1.26,1.56a25.25,25.25,0,0,0,9.43-19.15Z"/><path class="cls-3" d="M63.16,37.37a25.15,25.15,0,0,0-7.24-17.68L54.5,21.08a23.25,23.25,0,0,1,6.66,16.29v.5l2,.05C63.15,37.74,63.16,37.56,63.16,37.37Z"/><path class="cls-1" d="M58.92,16.73l-2.14,2.1a26.48,26.48,0,1,1-41.12,33l-2.51,1.64a29.48,29.48,0,1,0,45.77-36.7Z"/><path class="cls-1" d="M37.87,7.87A29.57,29.57,0,0,0,10.2,27.15l2.82,1A26.55,26.55,0,0,1,37.87,10.87h.61l.07-3Z"/><path class="cls-1" d="M38.55,7.89l-.07,3a26.4,26.4,0,0,1,18.3,7.94l2.14-2.1A29.38,29.38,0,0,0,38.55,7.89Z"/><circle class="cls-1" cx="37.92" cy="37.92" r="37.92"/></g></g></g></svg>