<svg xmlns="http://www.w3.org/2000/svg" viewBox="0 0 73.25 75.84"><defs><style>.cls-1{fill:none;}.cls-2{fill:#191919;}</style></defs><title>1Fichier 1</title><g id="Calque_2" data-name="Calque 2"><g id="Calque_1-2" data-name="Calque 1"><g id="Calque_1-2-2" data-name="Calque 1-2"><path class="cls-1" d="M4.91,37.37A31.63,31.63,0,0,1,17.76,11.92l-1.18-1.61A33.58,33.58,0,0,0,8.36,55.69L10,54.6A31.35,31.35,0,0,1,4.91,37.37Z"/><path class="cls-1" d="M10.08,37.37a26.41,26.41,0,0,1,1.64-9.18l-2.81-1a29.44,29.44,0,0,0,2.94,26.28l2.52-1.64A26.32,26.32,0,0,1,10.08,37.37Z"/><path class="cls-1" d="M15.52,63.61l1.25-1.56A31.8,31.8,0,0,1,10,54.6L8.36,55.69A34,34,0,0,0,15.52,63.61Z"/><path class="cls-1" d="M59.85,37.87a23.28,23.28,0,0,1-8.69,17.64l1.25,1.56a25.21,25.21,0,0,0,9.44-19.15Z"/><path class="cls-1" d="M61.87,37.37a25.19,25.19,0,0,0-7.24-17.68L53.2,21.08a23.25,23.25,0,0,1,6.67,16.29v.5l2,.05C61.86,37.74,61.87,37.56,61.87,37.37Z"/><path class="cls-1" d="M57.63,16.73l-2.14,2.1a26.48,26.48,0,1,1-41.12,33l-2.52,1.64a29.49,29.49,0,1,0,45.78-36.7Z"/><path class="cls-1" d="M36.58,7.87A29.54,29.54,0,0,0,8.91,27.15l2.81,1A26.55,26.55,0,0,1,36.58,10.87h.61l.07-3Z"/><path class="cls-1" d="M37.26,7.89l-.07,3a26.4,26.4,0,0,1,18.3,7.94l2.14-2.1A29.43,29.43,0,0,0,37.26,7.89Z"/><path class="cls-1" d="M36.63,75.84A37.92,37.92,0,0,0,73,48.79H.3A37.92,37.92,0,0,0,36.63,75.84Z"/><path class="cls-1" d="M36.63,0A37.92,37.92,0,0,0,.09,27.79H73.16A37.92,37.92,0,0,0,36.63,0Z"/><rect class="cls-2" y="27.78" width="73.25" height="21.01"/></g></g></g></svg>