<svg xmlns="http://www.w3.org/2000/svg" viewBox="0 0 75.84 75.84"><defs><style>.cls-1{fill:none;}.cls-2{fill:#e64142;}.cls-3{fill:#fff;}</style></defs><title>Fichier 1</title><g id="Calque_2" data-name="Calque 2"><g id="Calque_1-2" data-name="Calque 1"><g id="Calque_1-2-2" data-name="Calque 1-2"><path class="cls-1" d="M6.21,37.37A31.63,31.63,0,0,1,19.06,11.92l-1.19-1.61A33.61,33.61,0,0,0,9.65,55.69l1.68-1.09A31.38,31.38,0,0,1,6.21,37.37Z"/><path class="cls-2" d="M13.11,46.81a26.13,26.13,0,0,1-1.73-9.17h-3a29.45,29.45,0,0,0,12.1,23.51l1.77-2.42A26.34,26.34,0,0,1,13.11,46.81Z"/><path class="cls-1" d="M16.81,63.61l1.25-1.56a32.05,32.05,0,0,1-6.73-7.45L9.65,55.69A34.18,34.18,0,0,0,16.81,63.61Z"/><path class="cls-1" d="M61.15,37.87a23.24,23.24,0,0,1-8.7,17.64l1.26,1.56a25.25,25.25,0,0,0,9.43-19.15Z"/><path class="cls-1" d="M63.16,37.37a25.15,25.15,0,0,0-7.24-17.68L54.5,21.08a23.25,23.25,0,0,1,6.66,16.29v.5l2,.05C63.15,37.74,63.16,37.56,63.16,37.37Z"/><path class="cls-3" d="M50.19,10.59l-1.25,2.72A26.49,26.49,0,0,1,26.88,61.48a26.88,26.88,0,0,1-4.63-2.72l-1.77,2.42A29.48,29.48,0,1,0,50.19,10.59Z"/><path class="cls-3" d="M27.37,9.8a29.56,29.56,0,0,0-19,27.87h3a26.52,26.52,0,0,1,17.06-25l.58-.2L28,9.58Z"/><path class="cls-2" d="M28,9.58l1,2.83a26.39,26.39,0,0,1,19.92.9l1.25-2.72A29.36,29.36,0,0,0,28,9.58Z"/><circle class="cls-1" cx="37.92" cy="37.92" r="37.92"/></g></g></g></svg>