<svg xmlns="http://www.w3.org/2000/svg" viewBox="0 0 12.03 6.38"><defs><style>.cls-1{fill:#f0f0f0;}</style></defs><title>1Fichier 8</title><g id="Calque_2" data-name="Calque 2"><g id="Calque_1-2" data-name="Calque 1"><polygon class="cls-1" points="6 6.01 0.37 0.38 6.01 4.01 11.66 0.38 6 6.01"/><path class="cls-1" d="M6.26,5.74.64.12.18.71,5.83,4.33a.35.35,0,0,0,.37,0L11.85.71,11.39.12,5.73,5.74c-.34.34.19.88.53.53L11.92.65c.3-.3-.08-.83-.45-.59L8.83,1.75l-2,1.32c-.19.13-1,.59-.76.59s-.59-.47-.77-.59L3.38,1.87.56.06C.2-.17-.19.35.11.65L5.73,6.27A.37.37,0,0,0,6.26,5.74Z"/></g></g></svg>